<?xml version="1.0" encoding="UTF-8" standalone="no"?>
<!DOCTYPE svg PUBLIC "-//W3C//DTD SVG 1.1//EN" "http://www.w3.org/Graphics/SVG/1.1/DTD/svg11.dtd">
<svg width="100%" height="100%" viewBox="0 0 489 180" version="1.1" xmlns="http://www.w3.org/2000/svg" xmlns:xlink="http://www.w3.org/1999/xlink" xml:space="preserve" xmlns:serif="http://www.serif.com/" style="fill-rule:evenodd;clip-rule:evenodd;stroke-linejoin:round;stroke-miterlimit:2;">
    <g transform="matrix(1,0,0,1,-1314.45,-338.584)">
        <g transform="matrix(9.74423,0,0,5.98641,-2007.37,560.171)">
            <g transform="matrix(1.32063,0,0,2.14963,225.938,-87.0002)">
                <g transform="matrix(15.6972,0,0,15.6972,87.368,33.1264)">
                    <path d="M0.076,-0.059C0.06,-0.059 0.05,-0.066 0.045,-0.079C0.04,-0.092 0.037,-0.102 0.037,-0.111C0.037,-0.128 0.043,-0.147 0.054,-0.17C0.065,-0.193 0.08,-0.215 0.098,-0.237C0.116,-0.259 0.135,-0.277 0.156,-0.292C0.177,-0.307 0.196,-0.314 0.215,-0.314C0.224,-0.314 0.229,-0.311 0.229,-0.304C0.229,-0.301 0.228,-0.299 0.226,-0.297C0.224,-0.294 0.221,-0.293 0.218,-0.294C0.203,-0.295 0.187,-0.29 0.169,-0.277C0.15,-0.264 0.133,-0.247 0.116,-0.227C0.099,-0.206 0.085,-0.186 0.074,-0.165C0.063,-0.144 0.057,-0.126 0.057,-0.111C0.057,-0.102 0.059,-0.094 0.062,-0.088C0.065,-0.082 0.07,-0.079 0.076,-0.079C0.087,-0.079 0.101,-0.086 0.116,-0.1C0.131,-0.113 0.146,-0.131 0.162,-0.152C0.178,-0.172 0.194,-0.195 0.209,-0.218C0.224,-0.241 0.237,-0.262 0.249,-0.281C0.26,-0.3 0.269,-0.314 0.275,-0.323C0.288,-0.342 0.3,-0.355 0.313,-0.363C0.326,-0.37 0.337,-0.374 0.348,-0.374C0.36,-0.374 0.37,-0.37 0.378,-0.363C0.385,-0.356 0.389,-0.346 0.389,-0.335C0.389,-0.325 0.385,-0.314 0.378,-0.303C0.373,-0.295 0.364,-0.282 0.352,-0.264C0.34,-0.245 0.328,-0.226 0.315,-0.204C0.302,-0.184 0.292,-0.164 0.283,-0.147C0.274,-0.127 0.269,-0.111 0.269,-0.099C0.269,-0.086 0.276,-0.079 0.289,-0.079C0.301,-0.079 0.315,-0.083 0.33,-0.091C0.344,-0.099 0.36,-0.109 0.375,-0.122C0.39,-0.135 0.405,-0.148 0.418,-0.162C0.431,-0.175 0.442,-0.188 0.451,-0.199C0.453,-0.202 0.455,-0.203 0.458,-0.203C0.462,-0.203 0.465,-0.201 0.468,-0.198C0.47,-0.194 0.47,-0.19 0.467,-0.187C0.458,-0.174 0.447,-0.161 0.432,-0.146C0.417,-0.131 0.4,-0.117 0.383,-0.104C0.366,-0.091 0.348,-0.08 0.331,-0.071C0.314,-0.063 0.298,-0.059 0.285,-0.059C0.272,-0.059 0.263,-0.063 0.258,-0.07C0.252,-0.077 0.249,-0.087 0.249,-0.098C0.249,-0.112 0.253,-0.128 0.261,-0.146C0.27,-0.165 0.281,-0.185 0.294,-0.207C0.307,-0.23 0.32,-0.251 0.333,-0.271C0.345,-0.29 0.355,-0.305 0.362,-0.315C0.367,-0.322 0.369,-0.328 0.369,-0.335C0.369,-0.348 0.362,-0.354 0.349,-0.354C0.342,-0.354 0.333,-0.351 0.323,-0.344C0.312,-0.337 0.302,-0.326 0.291,-0.311C0.276,-0.289 0.26,-0.264 0.243,-0.235C0.225,-0.206 0.207,-0.179 0.189,-0.154C0.171,-0.129 0.153,-0.107 0.134,-0.088C0.115,-0.069 0.095,-0.059 0.076,-0.059ZM0,-0.182C-0.003,-0.182 -0.006,-0.184 -0.008,-0.187C-0.011,-0.19 -0.011,-0.194 -0.008,-0.198C0.003,-0.214 0.017,-0.232 0.032,-0.251C0.047,-0.27 0.063,-0.288 0.082,-0.305C0.101,-0.322 0.121,-0.336 0.142,-0.346C0.163,-0.358 0.186,-0.363 0.209,-0.363C0.216,-0.363 0.224,-0.362 0.231,-0.361C0.238,-0.359 0.245,-0.357 0.252,-0.354C0.256,-0.352 0.258,-0.349 0.258,-0.345C0.258,-0.342 0.257,-0.34 0.254,-0.338C0.251,-0.335 0.248,-0.335 0.244,-0.336C0.244,-0.336 0.243,-0.336 0.241,-0.337C0.239,-0.338 0.236,-0.338 0.233,-0.339C0.23,-0.34 0.226,-0.341 0.222,-0.342C0.218,-0.343 0.214,-0.343 0.209,-0.343C0.182,-0.343 0.156,-0.335 0.131,-0.318C0.106,-0.301 0.084,-0.281 0.063,-0.257C0.042,-0.233 0.023,-0.21 0.008,-0.187C0.006,-0.184 0.003,-0.182 0,-0.182ZM0.253,0.005C0.223,0.005 0.202,-0.003 0.189,-0.02C0.175,-0.036 0.169,-0.054 0.169,-0.073C0.169,-0.089 0.173,-0.104 0.181,-0.119C0.183,-0.122 0.186,-0.124 0.19,-0.124C0.193,-0.124 0.196,-0.123 0.199,-0.119C0.201,-0.117 0.201,-0.113 0.199,-0.109C0.192,-0.097 0.189,-0.085 0.189,-0.073C0.189,-0.058 0.194,-0.045 0.204,-0.033C0.214,-0.021 0.23,-0.015 0.253,-0.015C0.278,-0.015 0.303,-0.021 0.326,-0.032C0.348,-0.043 0.37,-0.056 0.391,-0.071C0.392,-0.072 0.394,-0.073 0.397,-0.073C0.404,-0.073 0.407,-0.07 0.407,-0.063C0.407,-0.06 0.406,-0.057 0.403,-0.055C0.382,-0.039 0.359,-0.025 0.334,-0.013C0.309,-0.001 0.282,0.005 0.253,0.005ZM0.062,0.004C0.04,0.004 0.021,-0.003 0.004,-0.018C-0.013,-0.033 -0.021,-0.055 -0.02,-0.086C-0.02,-0.092 -0.017,-0.095 -0.01,-0.095C-0.007,-0.095 -0.005,-0.094 -0.002,-0.093C-0,-0.091 0.001,-0.088 0,-0.085C-0.001,-0.061 0.005,-0.043 0.018,-0.033C0.031,-0.021 0.045,-0.016 0.062,-0.016C0.075,-0.016 0.089,-0.019 0.102,-0.025C0.115,-0.032 0.126,-0.041 0.135,-0.053C0.137,-0.056 0.14,-0.057 0.143,-0.057C0.146,-0.057 0.149,-0.055 0.152,-0.052C0.155,-0.049 0.154,-0.045 0.151,-0.041C0.14,-0.026 0.127,-0.015 0.111,-0.008C0.095,0 0.079,0.004 0.062,0.004Z" style="fill:rgb(49,49,49);fill-rule:nonzero;"/>
                </g>
                <g transform="matrix(15.6972,0,0,15.6972,94.573,33.1264)">
                    <path d="M0,-0.182C-0.003,-0.182 -0.006,-0.184 -0.008,-0.188C-0.011,-0.192 -0.011,-0.196 -0.008,-0.199C0.009,-0.218 0.029,-0.241 0.051,-0.27C0.075,-0.298 0.1,-0.328 0.128,-0.361C0.155,-0.393 0.184,-0.425 0.214,-0.457C0.244,-0.488 0.274,-0.517 0.305,-0.543C0.336,-0.569 0.366,-0.59 0.396,-0.606C0.425,-0.621 0.453,-0.629 0.48,-0.629C0.488,-0.629 0.498,-0.627 0.509,-0.624C0.521,-0.621 0.532,-0.615 0.541,-0.608C0.55,-0.6 0.555,-0.589 0.555,-0.576C0.555,-0.564 0.552,-0.556 0.545,-0.551C0.538,-0.546 0.53,-0.542 0.521,-0.541C0.512,-0.54 0.503,-0.539 0.494,-0.539C0.474,-0.539 0.453,-0.534 0.432,-0.524C0.411,-0.513 0.39,-0.5 0.37,-0.484C0.35,-0.468 0.331,-0.451 0.314,-0.433C0.297,-0.414 0.282,-0.397 0.27,-0.381C0.268,-0.378 0.265,-0.377 0.262,-0.377C0.259,-0.377 0.256,-0.379 0.254,-0.382C0.251,-0.385 0.251,-0.389 0.254,-0.393C0.266,-0.409 0.281,-0.427 0.299,-0.446C0.316,-0.465 0.336,-0.483 0.358,-0.5C0.379,-0.517 0.402,-0.532 0.425,-0.543C0.448,-0.554 0.471,-0.559 0.494,-0.559C0.5,-0.559 0.508,-0.56 0.519,-0.561C0.53,-0.562 0.535,-0.567 0.535,-0.576C0.535,-0.585 0.529,-0.593 0.517,-0.6C0.504,-0.606 0.492,-0.609 0.48,-0.609C0.455,-0.609 0.429,-0.601 0.401,-0.586C0.372,-0.57 0.343,-0.549 0.313,-0.523C0.283,-0.497 0.253,-0.468 0.224,-0.437C0.194,-0.406 0.166,-0.374 0.139,-0.343C0.112,-0.311 0.087,-0.281 0.065,-0.254C0.042,-0.227 0.023,-0.204 0.008,-0.186C0.006,-0.183 0.003,-0.182 0,-0.182ZM0.298,0.004C0.285,0.004 0.271,0.002 0.257,-0.002C0.242,-0.005 0.23,-0.012 0.221,-0.023C0.211,-0.033 0.206,-0.048 0.206,-0.067C0.206,-0.07 0.206,-0.078 0.207,-0.089L0.215,-0.164C0.216,-0.175 0.216,-0.182 0.216,-0.185C0.217,-0.193 0.222,-0.198 0.233,-0.199C0.244,-0.2 0.26,-0.203 0.283,-0.21C0.293,-0.213 0.307,-0.218 0.324,-0.224C0.341,-0.23 0.357,-0.239 0.373,-0.25C0.389,-0.261 0.401,-0.276 0.408,-0.294C0.41,-0.299 0.411,-0.305 0.411,-0.31C0.411,-0.321 0.405,-0.331 0.394,-0.34C0.383,-0.349 0.364,-0.353 0.338,-0.353C0.313,-0.353 0.287,-0.346 0.262,-0.333C0.237,-0.319 0.213,-0.302 0.192,-0.282C0.17,-0.262 0.151,-0.242 0.135,-0.222C0.133,-0.219 0.13,-0.218 0.127,-0.218C0.124,-0.218 0.121,-0.22 0.118,-0.224C0.116,-0.227 0.117,-0.231 0.12,-0.234C0.136,-0.253 0.156,-0.274 0.179,-0.296C0.202,-0.317 0.227,-0.336 0.254,-0.35C0.281,-0.366 0.309,-0.373 0.338,-0.373C0.366,-0.373 0.389,-0.367 0.406,-0.356C0.423,-0.344 0.431,-0.329 0.431,-0.311C0.431,-0.292 0.421,-0.272 0.401,-0.251C0.38,-0.23 0.349,-0.213 0.308,-0.199C0.297,-0.196 0.284,-0.192 0.269,-0.189C0.254,-0.186 0.243,-0.183 0.236,-0.182C0.235,-0.173 0.234,-0.16 0.233,-0.143C0.231,-0.126 0.229,-0.111 0.228,-0.096C0.227,-0.081 0.226,-0.072 0.226,-0.067C0.226,-0.048 0.233,-0.034 0.247,-0.027C0.26,-0.02 0.277,-0.016 0.298,-0.016C0.319,-0.016 0.34,-0.02 0.361,-0.029C0.382,-0.038 0.4,-0.048 0.417,-0.061C0.418,-0.062 0.42,-0.063 0.423,-0.063C0.43,-0.063 0.433,-0.06 0.433,-0.053C0.433,-0.05 0.432,-0.047 0.429,-0.045C0.41,-0.031 0.39,-0.019 0.368,-0.01C0.346,-0.001 0.323,0.004 0.298,0.004ZM0.033,0.003C0.019,0.003 0.009,-0.002 0.003,-0.011C-0.004,-0.02 -0.007,-0.03 -0.007,-0.041C-0.007,-0.052 -0.004,-0.064 0.002,-0.079C0.008,-0.094 0.015,-0.108 0.023,-0.123C0.03,-0.137 0.036,-0.149 0.041,-0.159C0.043,-0.163 0.046,-0.165 0.05,-0.165C0.053,-0.165 0.056,-0.164 0.059,-0.161C0.061,-0.158 0.061,-0.154 0.059,-0.15C0.055,-0.142 0.049,-0.131 0.042,-0.117C0.035,-0.103 0.028,-0.089 0.022,-0.075C0.016,-0.061 0.013,-0.05 0.013,-0.041C0.013,-0.025 0.02,-0.017 0.033,-0.017C0.046,-0.017 0.059,-0.026 0.07,-0.043C0.082,-0.06 0.095,-0.082 0.11,-0.109C0.125,-0.136 0.142,-0.163 0.162,-0.192C0.182,-0.221 0.206,-0.247 0.235,-0.27C0.264,-0.293 0.299,-0.31 0.34,-0.321L0.343,-0.321C0.35,-0.321 0.353,-0.318 0.353,-0.311C0.353,-0.306 0.35,-0.303 0.345,-0.302C0.304,-0.291 0.268,-0.273 0.237,-0.246C0.207,-0.219 0.181,-0.187 0.158,-0.152C0.135,-0.116 0.113,-0.079 0.093,-0.042C0.088,-0.033 0.081,-0.023 0.071,-0.013C0.061,-0.002 0.048,0.003 0.033,0.003ZM0.333,-0.065C0.315,-0.065 0.304,-0.071 0.299,-0.083C0.294,-0.094 0.291,-0.108 0.291,-0.125L0.292,-0.159C0.292,-0.166 0.295,-0.169 0.302,-0.169C0.309,-0.169 0.312,-0.165 0.312,-0.158C0.311,-0.151 0.311,-0.145 0.311,-0.139L0.311,-0.122C0.311,-0.109 0.313,-0.1 0.316,-0.094C0.319,-0.088 0.324,-0.085 0.333,-0.085C0.344,-0.085 0.357,-0.089 0.371,-0.097C0.384,-0.105 0.398,-0.115 0.412,-0.128C0.426,-0.14 0.439,-0.153 0.451,-0.166C0.462,-0.179 0.471,-0.19 0.478,-0.199C0.48,-0.202 0.482,-0.203 0.485,-0.203C0.488,-0.203 0.492,-0.201 0.495,-0.198C0.498,-0.195 0.497,-0.191 0.494,-0.187C0.488,-0.178 0.479,-0.167 0.467,-0.154C0.454,-0.14 0.441,-0.126 0.426,-0.113C0.41,-0.1 0.395,-0.088 0.379,-0.079C0.362,-0.07 0.347,-0.065 0.333,-0.065Z" style="fill:rgb(49,49,49);fill-rule:nonzero;"/>
                </g>
                <g transform="matrix(15.6972,0,0,15.6972,102.202,33.1264)">
                    <path d="M0.275,-0.402C0.259,-0.402 0.245,-0.408 0.234,-0.419C0.223,-0.43 0.217,-0.444 0.217,-0.46C0.217,-0.477 0.223,-0.491 0.234,-0.502C0.245,-0.513 0.259,-0.519 0.275,-0.519C0.292,-0.519 0.306,-0.513 0.317,-0.502C0.328,-0.491 0.334,-0.477 0.334,-0.46C0.334,-0.444 0.328,-0.43 0.317,-0.419C0.306,-0.408 0.292,-0.402 0.275,-0.402ZM0.275,-0.422C0.286,-0.422 0.296,-0.426 0.303,-0.433C0.31,-0.44 0.314,-0.449 0.314,-0.46C0.314,-0.471 0.31,-0.481 0.303,-0.488C0.296,-0.495 0.286,-0.499 0.275,-0.499C0.264,-0.499 0.255,-0.495 0.248,-0.488C0.241,-0.481 0.237,-0.471 0.237,-0.46C0.237,-0.449 0.241,-0.44 0.248,-0.433C0.255,-0.426 0.264,-0.422 0.275,-0.422ZM0.14,-0.056C0.127,-0.056 0.118,-0.061 0.114,-0.07C0.109,-0.079 0.106,-0.09 0.106,-0.101C0.106,-0.11 0.108,-0.124 0.113,-0.141C0.118,-0.158 0.124,-0.177 0.133,-0.198C0.141,-0.218 0.15,-0.237 0.161,-0.255C0.172,-0.272 0.183,-0.286 0.194,-0.297C0.2,-0.303 0.206,-0.308 0.213,-0.313C0.22,-0.322 0.223,-0.331 0.223,-0.339C0.223,-0.349 0.219,-0.357 0.21,-0.363C0.201,-0.368 0.191,-0.371 0.18,-0.371C0.169,-0.371 0.16,-0.368 0.154,-0.363C0.145,-0.354 0.135,-0.344 0.125,-0.333C0.114,-0.321 0.103,-0.307 0.092,-0.292C0.08,-0.277 0.067,-0.26 0.054,-0.243C0.041,-0.225 0.025,-0.206 0.008,-0.186C0.006,-0.183 0.003,-0.182 0,-0.182C-0.003,-0.182 -0.006,-0.184 -0.008,-0.188C-0.011,-0.192 -0.011,-0.196 -0.008,-0.199C0.009,-0.218 0.025,-0.237 0.039,-0.255C0.052,-0.273 0.065,-0.289 0.076,-0.304C0.088,-0.319 0.099,-0.333 0.11,-0.345C0.12,-0.358 0.13,-0.369 0.141,-0.378C0.151,-0.387 0.163,-0.392 0.178,-0.392C0.195,-0.392 0.211,-0.386 0.225,-0.375C0.239,-0.363 0.246,-0.349 0.246,-0.334C0.246,-0.321 0.239,-0.308 0.225,-0.297L0.22,-0.293C0.213,-0.287 0.206,-0.281 0.2,-0.274C0.193,-0.267 0.187,-0.26 0.182,-0.252C0.175,-0.237 0.167,-0.22 0.158,-0.202C0.149,-0.183 0.141,-0.165 0.135,-0.147C0.128,-0.129 0.125,-0.113 0.125,-0.099C0.125,-0.084 0.131,-0.076 0.144,-0.076C0.15,-0.076 0.157,-0.078 0.166,-0.081C0.187,-0.09 0.208,-0.103 0.23,-0.122C0.252,-0.141 0.276,-0.166 0.301,-0.199C0.303,-0.202 0.305,-0.203 0.308,-0.203C0.312,-0.203 0.315,-0.201 0.318,-0.198C0.321,-0.194 0.32,-0.19 0.317,-0.187C0.296,-0.16 0.277,-0.139 0.26,-0.122C0.242,-0.105 0.221,-0.09 0.198,-0.077C0.185,-0.07 0.174,-0.064 0.165,-0.061C0.156,-0.058 0.147,-0.056 0.14,-0.056ZM0.135,0.005C0.102,0.005 0.077,-0.006 0.059,-0.029C0.04,-0.052 0.032,-0.08 0.035,-0.113C0.036,-0.123 0.039,-0.137 0.044,-0.156C0.049,-0.174 0.056,-0.193 0.065,-0.212C0.073,-0.231 0.081,-0.246 0.09,-0.258C0.092,-0.261 0.095,-0.262 0.098,-0.262C0.101,-0.262 0.104,-0.26 0.107,-0.257C0.11,-0.254 0.109,-0.25 0.106,-0.246C0.098,-0.235 0.09,-0.221 0.083,-0.203C0.075,-0.185 0.069,-0.167 0.064,-0.15C0.059,-0.133 0.056,-0.12 0.055,-0.111C0.053,-0.086 0.059,-0.064 0.073,-0.044C0.087,-0.024 0.108,-0.014 0.136,-0.014C0.153,-0.014 0.174,-0.019 0.197,-0.029C0.22,-0.04 0.246,-0.057 0.273,-0.082C0.274,-0.083 0.276,-0.084 0.279,-0.084C0.284,-0.084 0.287,-0.082 0.29,-0.078C0.292,-0.073 0.291,-0.069 0.287,-0.066C0.258,-0.041 0.231,-0.023 0.205,-0.012C0.18,-0.001 0.156,0.005 0.135,0.005Z" style="fill:rgb(49,49,49);fill-rule:nonzero;"/>
                </g>
                <g transform="matrix(15.6972,0,0,15.6972,107.052,33.1264)">
                    <path d="M-0.236,0.258C-0.253,0.258 -0.267,0.252 -0.28,0.24C-0.293,0.229 -0.299,0.217 -0.299,0.204C-0.299,0.195 -0.295,0.186 -0.286,0.179C-0.277,0.172 -0.263,0.169 -0.242,0.168C-0.223,0.167 -0.202,0.156 -0.179,0.133C-0.157,0.11 -0.133,0.08 -0.108,0.041C-0.083,0.003 -0.057,-0.039 -0.03,-0.086C-0.015,-0.112 0.003,-0.142 0.022,-0.175C0.041,-0.209 0.062,-0.243 0.084,-0.278C0.105,-0.313 0.128,-0.345 0.151,-0.376C0.174,-0.406 0.197,-0.431 0.22,-0.45C0.225,-0.455 0.234,-0.461 0.245,-0.468C0.256,-0.475 0.268,-0.483 0.281,-0.491C0.295,-0.498 0.308,-0.504 0.321,-0.509C0.334,-0.515 0.344,-0.517 0.352,-0.517C0.371,-0.517 0.386,-0.515 0.398,-0.509C0.409,-0.504 0.418,-0.498 0.424,-0.491C0.429,-0.484 0.432,-0.476 0.432,-0.468C0.432,-0.457 0.428,-0.448 0.419,-0.44C0.409,-0.431 0.399,-0.427 0.388,-0.426C0.371,-0.425 0.354,-0.421 0.337,-0.414C0.32,-0.407 0.303,-0.397 0.288,-0.386C0.285,-0.385 0.283,-0.384 0.282,-0.384C0.275,-0.384 0.272,-0.388 0.272,-0.395C0.272,-0.398 0.273,-0.401 0.276,-0.403C0.293,-0.414 0.311,-0.424 0.33,-0.432C0.348,-0.44 0.367,-0.445 0.387,-0.446C0.395,-0.447 0.401,-0.449 0.406,-0.453C0.411,-0.457 0.413,-0.461 0.413,-0.466C0.413,-0.473 0.408,-0.48 0.399,-0.487C0.389,-0.494 0.373,-0.497 0.352,-0.497C0.344,-0.497 0.332,-0.493 0.316,-0.485C0.299,-0.477 0.283,-0.468 0.267,-0.459C0.251,-0.449 0.239,-0.441 0.232,-0.434C0.21,-0.416 0.188,-0.392 0.165,-0.362C0.142,-0.332 0.12,-0.3 0.099,-0.266C0.077,-0.231 0.057,-0.197 0.038,-0.164C0.019,-0.131 0.002,-0.101 -0.013,-0.076C-0.039,-0.031 -0.065,0.011 -0.091,0.051C-0.117,0.091 -0.142,0.124 -0.167,0.149C-0.192,0.174 -0.217,0.187 -0.241,0.188C-0.255,0.189 -0.265,0.191 -0.271,0.194C-0.277,0.197 -0.28,0.201 -0.28,0.206C-0.28,0.213 -0.275,0.22 -0.265,0.227C-0.256,0.234 -0.246,0.238 -0.237,0.238C-0.213,0.238 -0.189,0.229 -0.165,0.21C-0.141,0.191 -0.118,0.167 -0.095,0.138C-0.072,0.109 -0.051,0.077 -0.031,0.043C-0.011,0.01 0.007,-0.022 0.023,-0.053C0.039,-0.083 0.052,-0.108 0.063,-0.128C0.072,-0.145 0.083,-0.164 0.096,-0.185C0.108,-0.205 0.122,-0.226 0.137,-0.245C0.152,-0.264 0.168,-0.28 0.186,-0.293C0.204,-0.306 0.223,-0.312 0.243,-0.312C0.258,-0.312 0.27,-0.307 0.279,-0.298C0.287,-0.289 0.291,-0.277 0.291,-0.262C0.291,-0.243 0.285,-0.222 0.274,-0.199C0.263,-0.175 0.248,-0.152 0.23,-0.13C0.211,-0.107 0.191,-0.089 0.169,-0.075C0.147,-0.06 0.125,-0.053 0.103,-0.053C0.096,-0.053 0.093,-0.056 0.093,-0.063C0.093,-0.07 0.096,-0.073 0.103,-0.073C0.121,-0.073 0.14,-0.08 0.16,-0.093C0.179,-0.106 0.197,-0.122 0.214,-0.142C0.231,-0.162 0.244,-0.183 0.255,-0.204C0.266,-0.226 0.271,-0.245 0.271,-0.262C0.271,-0.282 0.262,-0.292 0.243,-0.292C0.227,-0.292 0.211,-0.286 0.196,-0.276C0.181,-0.265 0.166,-0.25 0.153,-0.233C0.139,-0.215 0.126,-0.196 0.114,-0.175C0.102,-0.155 0.091,-0.136 0.081,-0.118C0.07,-0.097 0.056,-0.07 0.039,-0.039C0.022,-0.007 0.004,0.026 -0.017,0.06C-0.038,0.095 -0.06,0.127 -0.083,0.157C-0.107,0.187 -0.132,0.211 -0.157,0.23C-0.183,0.249 -0.209,0.258 -0.236,0.258ZM0.086,-0.001C0.079,-0.001 0.076,-0.004 0.076,-0.011C0.076,-0.018 0.079,-0.021 0.086,-0.021C0.117,-0.021 0.148,-0.028 0.179,-0.041C0.209,-0.054 0.236,-0.071 0.261,-0.094C0.286,-0.117 0.305,-0.142 0.32,-0.172C0.335,-0.201 0.342,-0.231 0.342,-0.263C0.342,-0.287 0.335,-0.307 0.322,-0.323C0.309,-0.339 0.29,-0.347 0.266,-0.347C0.249,-0.347 0.237,-0.345 0.229,-0.342C0.22,-0.338 0.212,-0.332 0.205,-0.325C0.203,-0.323 0.201,-0.322 0.198,-0.322C0.195,-0.322 0.192,-0.324 0.19,-0.328C0.187,-0.332 0.188,-0.336 0.191,-0.339C0.2,-0.348 0.211,-0.355 0.222,-0.36C0.233,-0.365 0.247,-0.367 0.266,-0.367C0.297,-0.367 0.321,-0.357 0.338,-0.336C0.354,-0.315 0.362,-0.291 0.362,-0.263C0.362,-0.228 0.354,-0.195 0.338,-0.164C0.322,-0.132 0.301,-0.104 0.275,-0.08C0.248,-0.055 0.219,-0.036 0.186,-0.022C0.153,-0.008 0.12,-0.001 0.086,-0.001Z" style="fill:rgb(49,49,49);fill-rule:nonzero;"/>
                </g>
                <g transform="matrix(15.6972,0,0,15.6972,113.268,33.1264)">
                    <path d="M-0.236,0.258C-0.253,0.258 -0.267,0.252 -0.28,0.24C-0.293,0.229 -0.299,0.217 -0.299,0.204C-0.299,0.195 -0.295,0.186 -0.286,0.179C-0.277,0.172 -0.263,0.169 -0.242,0.168C-0.223,0.167 -0.202,0.156 -0.179,0.133C-0.157,0.11 -0.133,0.08 -0.108,0.041C-0.083,0.003 -0.057,-0.039 -0.03,-0.086C-0.015,-0.112 0.003,-0.142 0.022,-0.175C0.041,-0.209 0.062,-0.243 0.084,-0.278C0.105,-0.313 0.128,-0.345 0.151,-0.376C0.174,-0.406 0.197,-0.431 0.22,-0.45C0.225,-0.455 0.234,-0.461 0.245,-0.468C0.256,-0.475 0.268,-0.483 0.281,-0.491C0.295,-0.498 0.308,-0.504 0.321,-0.509C0.334,-0.515 0.344,-0.517 0.352,-0.517C0.371,-0.517 0.386,-0.515 0.398,-0.509C0.409,-0.504 0.418,-0.498 0.424,-0.491C0.429,-0.484 0.432,-0.476 0.432,-0.468C0.432,-0.457 0.428,-0.448 0.419,-0.44C0.409,-0.431 0.399,-0.427 0.388,-0.426C0.371,-0.425 0.354,-0.421 0.337,-0.414C0.32,-0.407 0.303,-0.397 0.288,-0.386C0.285,-0.385 0.283,-0.384 0.282,-0.384C0.275,-0.384 0.272,-0.388 0.272,-0.395C0.272,-0.398 0.273,-0.401 0.276,-0.403C0.293,-0.414 0.311,-0.424 0.33,-0.432C0.348,-0.44 0.367,-0.445 0.387,-0.446C0.395,-0.447 0.401,-0.449 0.406,-0.453C0.411,-0.457 0.413,-0.461 0.413,-0.466C0.413,-0.473 0.408,-0.48 0.399,-0.487C0.389,-0.494 0.373,-0.497 0.352,-0.497C0.344,-0.497 0.332,-0.493 0.316,-0.485C0.299,-0.477 0.283,-0.468 0.267,-0.459C0.251,-0.449 0.239,-0.441 0.232,-0.434C0.21,-0.416 0.188,-0.392 0.165,-0.362C0.142,-0.332 0.12,-0.3 0.099,-0.266C0.077,-0.231 0.057,-0.197 0.038,-0.164C0.019,-0.131 0.002,-0.101 -0.013,-0.076C-0.039,-0.031 -0.065,0.011 -0.091,0.051C-0.117,0.091 -0.142,0.124 -0.167,0.149C-0.192,0.174 -0.217,0.187 -0.241,0.188C-0.255,0.189 -0.265,0.191 -0.271,0.194C-0.277,0.197 -0.28,0.201 -0.28,0.206C-0.28,0.213 -0.275,0.22 -0.265,0.227C-0.256,0.234 -0.246,0.238 -0.237,0.238C-0.213,0.238 -0.189,0.229 -0.165,0.21C-0.141,0.191 -0.118,0.167 -0.095,0.138C-0.072,0.109 -0.051,0.077 -0.031,0.043C-0.011,0.01 0.007,-0.022 0.023,-0.053C0.039,-0.083 0.052,-0.108 0.063,-0.128C0.072,-0.145 0.083,-0.164 0.096,-0.185C0.108,-0.205 0.122,-0.226 0.137,-0.245C0.152,-0.264 0.168,-0.28 0.186,-0.293C0.204,-0.306 0.223,-0.312 0.243,-0.312C0.258,-0.312 0.27,-0.307 0.279,-0.298C0.287,-0.289 0.291,-0.277 0.291,-0.262C0.291,-0.243 0.285,-0.222 0.274,-0.199C0.263,-0.175 0.248,-0.152 0.23,-0.13C0.211,-0.107 0.191,-0.089 0.169,-0.075C0.147,-0.06 0.125,-0.053 0.103,-0.053C0.096,-0.053 0.093,-0.056 0.093,-0.063C0.093,-0.07 0.096,-0.073 0.103,-0.073C0.121,-0.073 0.14,-0.08 0.16,-0.093C0.179,-0.106 0.197,-0.122 0.214,-0.142C0.231,-0.162 0.244,-0.183 0.255,-0.204C0.266,-0.226 0.271,-0.245 0.271,-0.262C0.271,-0.282 0.262,-0.292 0.243,-0.292C0.227,-0.292 0.211,-0.286 0.196,-0.276C0.181,-0.265 0.166,-0.25 0.153,-0.233C0.139,-0.215 0.126,-0.196 0.114,-0.175C0.102,-0.155 0.091,-0.136 0.081,-0.118C0.07,-0.097 0.056,-0.07 0.039,-0.039C0.022,-0.007 0.004,0.026 -0.017,0.06C-0.038,0.095 -0.06,0.127 -0.083,0.157C-0.107,0.187 -0.132,0.211 -0.157,0.23C-0.183,0.249 -0.209,0.258 -0.236,0.258ZM0.086,-0.001C0.079,-0.001 0.076,-0.004 0.076,-0.011C0.076,-0.018 0.079,-0.021 0.086,-0.021C0.117,-0.021 0.148,-0.028 0.179,-0.041C0.209,-0.054 0.236,-0.071 0.261,-0.094C0.286,-0.117 0.305,-0.142 0.32,-0.172C0.335,-0.201 0.342,-0.231 0.342,-0.263C0.342,-0.287 0.335,-0.307 0.322,-0.323C0.309,-0.339 0.29,-0.347 0.266,-0.347C0.249,-0.347 0.237,-0.345 0.229,-0.342C0.22,-0.338 0.212,-0.332 0.205,-0.325C0.203,-0.323 0.201,-0.322 0.198,-0.322C0.195,-0.322 0.192,-0.324 0.19,-0.328C0.187,-0.332 0.188,-0.336 0.191,-0.339C0.2,-0.348 0.211,-0.355 0.222,-0.36C0.233,-0.365 0.247,-0.367 0.266,-0.367C0.297,-0.367 0.321,-0.357 0.338,-0.336C0.354,-0.315 0.362,-0.291 0.362,-0.263C0.362,-0.228 0.354,-0.195 0.338,-0.164C0.322,-0.132 0.301,-0.104 0.275,-0.08C0.248,-0.055 0.219,-0.036 0.186,-0.022C0.153,-0.008 0.12,-0.001 0.086,-0.001Z" style="fill:rgb(49,49,49);fill-rule:nonzero;"/>
                </g>
                <g transform="matrix(15.6972,0,0,15.6972,119.484,33.1264)">
                    <path d="M0.259,-0.177C0.255,-0.177 0.252,-0.179 0.25,-0.182C0.247,-0.185 0.247,-0.189 0.25,-0.193C0.27,-0.222 0.28,-0.251 0.28,-0.278C0.28,-0.297 0.274,-0.313 0.263,-0.326C0.251,-0.338 0.233,-0.344 0.21,-0.344C0.175,-0.344 0.141,-0.329 0.109,-0.299C0.076,-0.268 0.042,-0.23 0.007,-0.185C0.005,-0.183 0.003,-0.182 0.001,-0.182C-0.002,-0.182 -0.005,-0.184 -0.007,-0.188C-0.01,-0.192 -0.01,-0.196 -0.007,-0.2C0.016,-0.23 0.038,-0.257 0.061,-0.282C0.084,-0.307 0.107,-0.326 0.132,-0.341C0.156,-0.356 0.181,-0.363 0.208,-0.363C0.241,-0.363 0.265,-0.355 0.279,-0.339C0.293,-0.323 0.3,-0.304 0.3,-0.281C0.3,-0.264 0.297,-0.247 0.291,-0.23C0.285,-0.213 0.277,-0.196 0.266,-0.181C0.264,-0.178 0.262,-0.177 0.259,-0.177ZM0.079,-0.053C0.065,-0.053 0.054,-0.058 0.047,-0.068C0.039,-0.077 0.035,-0.09 0.035,-0.105C0.035,-0.125 0.041,-0.147 0.053,-0.171C0.065,-0.195 0.081,-0.218 0.1,-0.239C0.118,-0.261 0.138,-0.279 0.159,-0.293C0.18,-0.307 0.198,-0.314 0.215,-0.314C0.224,-0.314 0.229,-0.311 0.229,-0.304C0.229,-0.301 0.228,-0.299 0.226,-0.297C0.224,-0.294 0.221,-0.293 0.218,-0.294C0.204,-0.295 0.188,-0.29 0.17,-0.277C0.151,-0.264 0.133,-0.248 0.116,-0.228C0.099,-0.208 0.084,-0.187 0.073,-0.165C0.061,-0.142 0.055,-0.122 0.055,-0.104C0.055,-0.095 0.057,-0.088 0.06,-0.082C0.063,-0.076 0.07,-0.073 0.079,-0.073C0.09,-0.073 0.101,-0.077 0.113,-0.084C0.125,-0.091 0.136,-0.099 0.146,-0.109C0.156,-0.119 0.163,-0.128 0.168,-0.137C0.17,-0.14 0.173,-0.142 0.176,-0.142C0.179,-0.142 0.182,-0.141 0.185,-0.138C0.188,-0.135 0.188,-0.131 0.185,-0.127C0.179,-0.117 0.17,-0.106 0.159,-0.095C0.148,-0.083 0.135,-0.073 0.121,-0.065C0.107,-0.057 0.093,-0.053 0.079,-0.053ZM0.247,-0.133C0.225,-0.133 0.206,-0.14 0.19,-0.153C0.174,-0.166 0.166,-0.184 0.166,-0.207C0.166,-0.215 0.167,-0.224 0.17,-0.233C0.172,-0.242 0.175,-0.251 0.18,-0.261C0.182,-0.265 0.185,-0.267 0.189,-0.267C0.192,-0.267 0.195,-0.266 0.198,-0.263C0.2,-0.26 0.2,-0.257 0.198,-0.253C0.194,-0.245 0.191,-0.237 0.19,-0.23C0.188,-0.223 0.187,-0.216 0.187,-0.209C0.187,-0.191 0.193,-0.177 0.205,-0.168C0.217,-0.158 0.231,-0.153 0.248,-0.153C0.263,-0.153 0.278,-0.157 0.293,-0.164C0.308,-0.171 0.322,-0.183 0.335,-0.199C0.337,-0.202 0.339,-0.203 0.342,-0.203C0.345,-0.203 0.348,-0.201 0.351,-0.198C0.354,-0.194 0.354,-0.19 0.351,-0.187C0.336,-0.168 0.319,-0.155 0.301,-0.146C0.282,-0.137 0.264,-0.133 0.247,-0.133ZM0.077,0.01C0.048,0.01 0.024,0 0.005,-0.019C-0.014,-0.038 -0.023,-0.06 -0.02,-0.086C-0.02,-0.093 -0.017,-0.096 -0.01,-0.096C-0.007,-0.096 -0.005,-0.095 -0.002,-0.093C-0,-0.09 0.001,-0.087 0,-0.084C-0.001,-0.067 0.006,-0.05 0.021,-0.034C0.035,-0.017 0.055,-0.009 0.078,-0.009C0.093,-0.009 0.11,-0.014 0.127,-0.023C0.144,-0.032 0.162,-0.048 0.179,-0.07C0.179,-0.07 0.181,-0.073 0.186,-0.078C0.19,-0.083 0.195,-0.089 0.2,-0.096C0.205,-0.102 0.209,-0.107 0.211,-0.111C0.213,-0.115 0.216,-0.117 0.219,-0.117C0.222,-0.117 0.225,-0.116 0.228,-0.113C0.23,-0.11 0.23,-0.106 0.228,-0.102C0.224,-0.094 0.219,-0.086 0.212,-0.079C0.205,-0.072 0.199,-0.064 0.194,-0.057C0.175,-0.033 0.156,-0.016 0.136,-0.006C0.115,0.005 0.096,0.01 0.077,0.01Z" style="fill:rgb(49,49,49);fill-rule:nonzero;"/>
                </g>
            </g>
        </g>
    </g>
</svg>
